# xmcd
#
# Track frame offsets: 
#        150
#        27904
#        47396
#        75136
#
# Disc length: 1258 seconds
#
# Revision: 3
# Processed by: cddbd v1.5.2PL0 Copyright (c) Steve Scherf et al.
# Submitted via: ExactAudioCopyFreeDBPlugin 1.0
#
DISCID=1a04e804
DTITLE=????? - ??
DYEAR=2005
DGENRE=JPop
TTITLE0=??
TTITLE1=??????
TTITLE2=?? (ORIGINAL KARAOKE)
TTITLE3=?????? (ORIGINAL KARAOKE)
EXTD=
EXTT0=
EXTT1=
EXTT2=
EXTT3=
PLAYORDER=
